<svg width="64" height="64" viewBox="0 0 64 64" fill="none" xmlns="http://www.w3.org/2000/svg">
<g clip-path="url(#clip0_168_1398)">
<path fill-rule="evenodd" clip-rule="evenodd" d="M11.811 25.4672H53.1195L46.7711 7.05701H17.185L11.811 25.4672Z" fill="#BADEFF"/>
<path fill-rule="evenodd" clip-rule="evenodd" d="M53.6362 26.9583H11.3682L10.3643 30.4129H54.8321L53.6362 26.9583Z" fill="#BADEFF"/>
<path fill-rule="evenodd" clip-rule="evenodd" d="M17.6279 5.56588H46.2545L45.0734 2.12598H18.6319L17.6279 5.56588Z" fill="#BADEFF"/>
<path fill-rule="evenodd" clip-rule="evenodd" d="M35.1816 31.9188H29.66C29.66 34.1924 29.5862 51.3034 29.7043 52.0563C30.2505 55.2748 35.1816 54.95 35.1816 51.5543V31.9188Z" fill="#BADEFF"/>
<path fill-rule="evenodd" clip-rule="evenodd" d="M46.5794 52.8978H36.4812C35.2115 56.7806 29.6752 56.7954 28.376 52.8978H17.4805V57.2678H46.5794V52.8978Z" fill="#BADEFF"/>
<path fill-rule="evenodd" clip-rule="evenodd" d="M52.4994 58.759H11.5601V63.129H52.4994V58.759Z" fill="#BADEFF"/>
<path fill-rule="evenodd" clip-rule="evenodd" d="M47.3323 41.2937C45.0735 41.2937 45.0735 44.7188 47.3323 44.7188C49.5764 44.7188 49.5764 41.2937 47.3323 41.2937Z" fill="#BADEFF"/>
<path fill-rule="evenodd" clip-rule="evenodd" d="M46.6972 45.5899C42.9177 45.5899 42.2977 40.1273 45.9443 39.2563V31.284H36.0674V50.7719H46.6972C47.1106 50.7719 47.4501 51.1114 47.4501 51.5248V56.633H52.6174C53.0308 56.633 53.3703 56.9725 53.3703 57.3859V63.2471C53.3703 63.6604 53.0308 64 52.6174 64H10.1869C9.77356 64 9.434 63.6604 9.434 63.2471V57.3859C9.434 56.9725 9.77356 56.633 10.1869 56.633H15.3542V51.5248C15.3542 51.1114 15.6937 50.7719 16.1071 50.7719H27.5341V31.284H8.74012C8.22339 31.284 7.88383 30.782 8.0167 30.3243L16.7124 0.531488C16.801 0.20669 17.0963 0 17.4358 0H44.9994C45.3242 0 45.6047 0.20669 45.708 0.501961L55.9687 30.28C56.1459 30.7968 55.7473 31.284 55.2601 31.284H47.4501V39.2563C51.1115 40.1273 50.4767 45.5899 46.6972 45.5899ZM34.5616 31.284H29.04C29.04 33.5723 28.9662 50.6833 29.0843 51.4362C29.6158 54.6547 34.5616 54.3299 34.5616 50.9343V31.284ZM9.74404 29.7928H54.1971L53.016 26.3382H10.748L9.74404 29.7928ZM52.4993 24.8323L46.151 6.43691H16.5648L11.1909 24.8323H52.4993ZM45.6342 4.93103L44.4531 1.50588H17.9969L16.9929 4.93103H45.6342ZM16.8453 56.633H45.9443V52.2777H35.846C34.5763 56.1458 29.04 56.1606 27.7556 52.2777H16.8453V56.633ZM10.9399 62.4941H51.8792V58.1389H10.9399V62.4941ZM46.6972 40.6588C44.4384 40.6588 44.4384 44.084 46.6972 44.084C48.956 44.084 48.956 40.6588 46.6972 40.6588Z" fill="#353185"/>
</g>
<defs>
<clipPath id="clip0_168_1398">
<rect width="64" height="64" fill="white"/>
</clipPath>
</defs>
</svg>
