<svg width="75" height="31" viewBox="0 0 75 31" fill="none" xmlns="http://www.w3.org/2000/svg">
<mask id="mask0_179_4898" style="mask-type:luminance" maskUnits="userSpaceOnUse" x="0" y="0" width="75" height="31">
<path d="M0.00994873 0.112793H74.9474V30.9976H0.00994873V0.112793Z" fill="white"/>
</mask>
<g mask="url(#mask0_179_4898)">
<path fill-rule="evenodd" clip-rule="evenodd" d="M7.83186 14.0055C6.21687 13.412 5.3318 12.9504 5.3318 12.225C5.3318 11.6094 5.84071 11.2577 6.74784 11.2577C8.40714 11.2577 10.1106 11.8952 11.2832 12.4667L11.9469 8.40009C11.0177 7.96039 9.11499 7.23498 6.48236 7.23498C4.62395 7.23498 3.07517 7.71854 1.96908 8.61985C0.818529 9.56503 0.221184 10.928 0.221184 12.5766C0.221184 15.5661 2.05752 16.8412 5.04425 17.9183C6.96903 18.5997 7.61067 19.0834 7.61067 19.8307C7.61067 20.5561 6.9911 20.9737 5.86278 20.9737C4.46897 20.9737 2.1682 20.2923 0.663717 19.4131L0 23.5237C1.28313 24.2491 3.67251 24.9964 6.1505 24.9964C8.11941 24.9964 9.75664 24.5348 10.8629 23.6556C12.1017 22.6883 12.7434 21.2596 12.7434 19.4131C12.7434 16.3575 10.8629 15.0826 7.83186 14.0055ZM23.5482 11.6094L24.2119 7.56472H20.708V2.65469L15.9969 3.42494L15.3166 7.56472L13.6596 7.8318L13.0394 11.6094H15.3098V19.545C15.3098 21.6113 15.8408 23.0401 16.9248 23.9194C17.8319 24.6448 19.1371 24.9964 20.9735 24.9964C22.3893 24.9964 23.2522 24.7548 23.8495 24.6008V20.3143C23.5176 20.4023 22.7655 20.5561 22.2566 20.5561C21.1726 20.5561 20.708 20.0066 20.708 18.7536V11.6094H23.5482ZM34.0707 7.32846C32.5221 7.32846 31.2831 8.1363 30.7965 9.58712L30.4646 7.56472H25.6638V24.6667H31.1504V13.5658C31.8363 12.7304 32.8097 12.4284 34.1371 12.4284C34.4248 12.4284 34.7345 12.4284 35.1106 12.4944V7.46036C34.7345 7.37248 34.4026 7.32846 34.0707 7.32846ZM39.2036 5.87204C40.7965 5.87204 42.0796 4.57521 42.0796 2.9925C42.0796 1.3877 40.7965 0.112793 39.2036 0.112793C37.5884 0.112793 36.3053 1.3877 36.3053 2.9925C36.3053 4.57521 37.5884 5.87204 39.2036 5.87204ZM36.4381 7.56472H41.9469V24.6667H36.4381V7.56472ZM57.558 9.10341C56.5845 7.85043 55.235 7.23498 53.5093 7.23498C51.9164 7.23498 50.5226 7.89445 49.2173 9.27932L48.9297 7.56472H44.1066V30.9976L49.5934 30.0964V24.6008C50.434 24.8646 51.2968 24.9964 52.0712 24.9964C53.443 24.9964 55.4341 24.6448 56.9827 22.9742C58.465 21.3694 59.2173 18.8855 59.2173 15.6102C59.2173 12.7085 58.6641 10.5104 57.558 9.10341ZM53.0004 19.6548C52.5579 20.4902 51.8721 20.9299 51.0757 20.9299C50.5226 20.9299 50.0358 20.8199 49.5934 20.6001V12.4667C50.5226 11.4996 51.3632 11.3896 51.673 11.3896C53.0668 11.3896 53.7526 12.8844 53.7526 15.808C53.7526 17.4786 53.5093 18.7756 53.0004 19.6548ZM74.9474 15.9618C74.9474 13.2361 74.3501 11.0818 73.1774 9.56503C71.9827 8.02634 70.1907 7.23498 67.912 7.23498C63.2437 7.23498 60.3456 10.6642 60.3456 16.1597C60.3456 19.2372 61.1199 21.5453 62.6464 23.0181C64.0181 24.337 65.9872 24.9964 68.5314 24.9964C70.8765 24.9964 73.0447 24.4469 74.4164 23.5456L73.8191 19.8088C72.4694 20.5342 70.8987 20.9299 69.1288 20.9299C68.0668 20.9299 67.3367 20.7099 66.8057 20.2483C66.2305 19.7648 65.8986 18.9734 65.7881 17.8523H74.881C74.9031 17.5885 74.9474 16.3575 74.9474 15.9618ZM65.7438 14.511C65.8986 12.071 66.5623 10.928 67.8234 10.928C69.0624 10.928 69.704 12.0931 69.7925 14.511H65.7438Z" fill="#635BFF"/>
</g>
</svg>
