<svg width="24" height="25" viewBox="0 0 24 25" fill="none" xmlns="http://www.w3.org/2000/svg">
<path d="M21 12.5C21 11.2574 19.9926 10.25 18.75 10.25H15C15 11.9069 13.6569 13.25 12 13.25C10.3431 13.25 9 11.9069 9 10.25H5.25C4.00736 10.25 3 11.2574 3 12.5M21 12.5V18.5C21 19.7426 19.9926 20.75 18.75 20.75H5.25C4.00736 20.75 3 19.7426 3 18.5V12.5M21 12.5V9.5M3 12.5V9.5M21 9.5C21 8.25736 19.9926 7.25 18.75 7.25H5.25C4.00736 7.25 3 8.25736 3 9.5M21 9.5V6.5C21 5.25736 19.9926 4.25 18.75 4.25H5.25C4.00736 4.25 3 5.25736 3 6.5V9.5" stroke="#0F172A" stroke-width="1.5" stroke-linecap="round" stroke-linejoin="round"/>
</svg>
