<svg width="203" height="48" viewBox="0 0 203 48" fill="none" xmlns="http://www.w3.org/2000/svg">
<path d="M10.008 37.288C9.408 37.288 8.796 37.156 8.172 36.892C7.572 36.604 7.272 36.148 7.272 35.524V18.676C7.272 17.908 7.464 17.38 7.848 17.092C8.232 16.804 8.544 16.624 8.784 16.552H1.836C1.26 16.552 0.828 16.3 0.54 15.796C0.276 15.268 0.144 14.728 0.144 14.176C0.144 13.576 0.288 13.036 0.576 12.556C0.864 12.052 1.284 11.8 1.836 11.8H17.928C18.48 11.8 18.9 12.052 19.188 12.556C19.476 13.036 19.62 13.576 19.62 14.176C19.62 14.728 19.476 15.268 19.188 15.796C18.924 16.3 18.504 16.552 17.928 16.552H12.456V35.524C12.456 36.124 12.204 36.568 11.7 36.856C11.22 37.144 10.656 37.288 10.008 37.288ZM19.8951 37.288C18.1671 37.288 17.3031 36.472 17.3031 34.84V21.196C17.3031 19.54 18.1671 18.712 19.8951 18.712C20.7591 18.712 21.3831 18.904 21.7671 19.288C22.1511 19.648 22.3431 20.248 22.3431 21.088C22.7751 20.296 23.3871 19.708 24.1791 19.324C24.9951 18.916 25.9431 18.712 27.0231 18.712C29.0871 18.712 30.1191 19.612 30.1191 21.412C30.1191 22.084 29.8671 22.588 29.3631 22.924C28.8591 23.26 28.0311 23.428 26.8791 23.428C25.7511 23.428 24.8631 23.536 24.2151 23.752C23.5671 23.944 23.1111 24.316 22.8471 24.868C22.6071 25.396 22.4871 26.164 22.4871 27.172V34.84C22.4871 36.472 21.6231 37.288 19.8951 37.288ZM33.4218 15.616C32.5338 15.616 31.7898 15.328 31.1898 14.752C30.5898 14.176 30.2898 13.468 30.2898 12.628C30.2898 11.74 30.5898 11.008 31.1898 10.432C31.7898 9.856 32.5338 9.568 33.4218 9.568C34.3338 9.568 35.0778 9.856 35.6538 10.432C36.2538 11.008 36.5538 11.74 36.5538 12.628C36.5538 13.468 36.2538 14.176 35.6538 14.752C35.0778 15.328 34.3338 15.616 33.4218 15.616ZM36.0138 34.876C36.0138 36.484 35.1738 37.288 33.4938 37.288C32.6778 37.288 32.0298 37.096 31.5498 36.712C31.0698 36.304 30.8298 35.692 30.8298 34.876V21.16C30.8298 20.392 31.0218 19.792 31.4058 19.36C31.8138 18.928 32.4858 18.712 33.4218 18.712C34.3578 18.712 35.0178 18.928 35.4018 19.36C35.8098 19.792 36.0138 20.392 36.0138 21.16V34.876ZM47.3386 37.288C44.7706 37.288 42.7426 36.556 41.2546 35.092C39.7666 33.628 39.0226 31.264 39.0226 28C39.0226 24.712 39.7666 22.348 41.2546 20.908C42.7426 19.444 44.7706 18.712 47.3386 18.712C49.9066 18.712 51.9346 19.444 53.4226 20.908C54.9106 22.348 55.6546 24.712 55.6546 28C55.6546 31.264 54.9106 33.628 53.4226 35.092C51.9346 36.556 49.9066 37.288 47.3386 37.288ZM47.3386 32.968C48.0106 32.968 48.5746 32.836 49.0306 32.572C49.4866 32.284 49.8346 31.78 50.0746 31.06C50.3386 30.34 50.4706 29.32 50.4706 28C50.4706 26.68 50.3386 25.66 50.0746 24.94C49.8346 24.22 49.4866 23.728 49.0306 23.464C48.5746 23.176 48.0106 23.032 47.3386 23.032C46.6906 23.032 46.1266 23.176 45.6466 23.464C45.1906 23.728 44.8306 24.22 44.5666 24.94C44.3266 25.66 44.2066 26.68 44.2066 28C44.2066 29.32 44.3266 30.34 44.5666 31.06C44.8306 31.78 45.1906 32.284 45.6466 32.572C46.1266 32.836 46.6906 32.968 47.3386 32.968ZM66.6427 37.288C65.0587 37.288 63.6667 36.964 62.4667 36.316C61.2667 35.668 60.3307 34.756 59.6587 33.58C59.0107 32.404 58.6867 31.036 58.6867 29.476V21.052C58.6867 19.42 59.5507 18.604 61.2787 18.604C63.0067 18.604 63.8707 19.42 63.8707 21.052V29.404C63.8707 30.532 64.1107 31.408 64.5907 32.032C65.0707 32.656 65.7547 32.968 66.6427 32.968C67.5307 32.968 68.2147 32.656 68.6947 32.032C69.1748 31.408 69.4148 30.532 69.4148 29.404V21.052C69.4148 19.42 70.2788 18.604 72.0068 18.604C73.7348 18.604 74.5988 19.42 74.5988 21.052V29.476C74.5988 31.036 74.2628 32.404 73.5908 33.58C72.9427 34.756 72.0188 35.668 70.8188 36.316C69.6427 36.964 68.2507 37.288 66.6427 37.288ZM80.6397 37.288C78.9117 37.288 78.0477 36.472 78.0477 34.84V21.196C78.0477 19.54 78.9117 18.712 80.6397 18.712C81.5037 18.712 82.1277 18.904 82.5117 19.288C82.8957 19.648 83.0877 20.248 83.0877 21.088C83.5197 20.296 84.1317 19.708 84.9237 19.324C85.7397 18.916 86.6877 18.712 87.7677 18.712C89.8317 18.712 90.8637 19.612 90.8637 21.412C90.8637 22.084 90.6117 22.588 90.1077 22.924C89.6037 23.26 88.7757 23.428 87.6237 23.428C86.4957 23.428 85.6077 23.536 84.9597 23.752C84.3117 23.944 83.8557 24.316 83.5917 24.868C83.3517 25.396 83.2317 26.164 83.2317 27.172V34.84C83.2317 36.472 82.3677 37.288 80.6397 37.288ZM94.1664 15.616C93.2784 15.616 92.5344 15.328 91.9344 14.752C91.3344 14.176 91.0344 13.468 91.0344 12.628C91.0344 11.74 91.3344 11.008 91.9344 10.432C92.5344 9.856 93.2784 9.568 94.1664 9.568C95.0784 9.568 95.8224 9.856 96.3984 10.432C96.9984 11.008 97.2984 11.74 97.2984 12.628C97.2984 13.468 96.9984 14.176 96.3984 14.752C95.8224 15.328 95.0784 15.616 94.1664 15.616ZM96.7584 34.876C96.7584 36.484 95.9184 37.288 94.2384 37.288C93.4224 37.288 92.7744 37.096 92.2944 36.712C91.8144 36.304 91.5744 35.692 91.5744 34.876V21.16C91.5744 20.392 91.7664 19.792 92.1504 19.36C92.5584 18.928 93.2304 18.712 94.1664 18.712C95.1024 18.712 95.7624 18.928 96.1464 19.36C96.5544 19.792 96.7584 20.392 96.7584 21.16V34.876ZM106.432 37.288C101.92 37.288 99.6643 36.292 99.6643 34.3C99.6643 33.676 99.8323 33.184 100.168 32.824C100.504 32.464 100.948 32.284 101.5 32.284C101.74 32.284 101.968 32.32 102.184 32.392C102.424 32.44 102.88 32.572 103.552 32.788C103.84 32.884 104.224 32.98 104.704 33.076C105.184 33.172 105.652 33.22 106.108 33.22C106.972 33.22 107.584 33.112 107.944 32.896C108.304 32.68 108.484 32.32 108.484 31.816C108.484 31.408 108.388 31.096 108.196 30.88C108.004 30.64 107.596 30.412 106.972 30.196C106.348 29.98 105.376 29.68 104.056 29.296C102.856 28.96 101.884 28.36 101.14 27.496C100.42 26.608 100.06 25.516 100.06 24.22C100.06 22.396 100.72 21.004 102.04 20.044C103.36 19.084 105.172 18.604 107.476 18.604C109.204 18.604 110.56 18.844 111.544 19.324C112.528 19.804 113.02 20.5 113.02 21.412C113.02 21.988 112.852 22.468 112.516 22.852C112.18 23.236 111.724 23.428 111.148 23.428C110.908 23.428 110.62 23.392 110.284 23.32C109.972 23.248 109.588 23.152 109.132 23.032C108.796 22.912 108.436 22.816 108.052 22.744C107.692 22.672 107.308 22.636 106.9 22.636C105.748 22.636 105.172 23.044 105.172 23.86C105.172 24.34 105.4 24.748 105.856 25.084C106.312 25.396 107.188 25.744 108.484 26.128C110.26 26.656 111.568 27.364 112.408 28.252C113.248 29.116 113.668 30.268 113.668 31.708C113.668 33.388 113.02 34.744 111.724 35.776C110.452 36.784 108.688 37.288 106.432 37.288ZM119.035 37.288C117.307 37.288 116.443 36.472 116.443 34.84V26.2C116.443 23.752 117.019 21.892 118.171 20.62C119.347 19.348 121.027 18.712 123.211 18.712C126.187 18.712 128.203 19.78 129.259 21.916C130.315 19.78 132.331 18.712 135.307 18.712C137.491 18.712 139.159 19.348 140.311 20.62C141.487 21.892 142.075 23.752 142.075 26.2V34.84C142.075 36.472 141.211 37.288 139.483 37.288C137.755 37.288 136.891 36.472 136.891 34.84V26.488C136.891 25.264 136.687 24.388 136.279 23.86C135.871 23.308 135.235 23.032 134.371 23.032C132.643 23.032 131.779 24.184 131.779 26.488V34.696C131.779 36.328 130.939 37.144 129.259 37.144C127.579 37.144 126.739 36.328 126.739 34.696V26.488C126.739 24.184 125.875 23.032 124.147 23.032C122.467 23.032 121.627 24.184 121.627 26.488V34.84C121.627 36.472 120.763 37.288 119.035 37.288Z" fill="#3581EC"/>
<path d="M157.182 14.6136V33.75H156.045V14.6136H157.182ZM169.067 30V18.3636H170.477V23.5455H176.681V18.3636H178.09V30H176.681V24.7955H170.477V30H169.067ZM184.083 30.1818C183.295 30.1818 182.604 29.9943 182.009 29.6193C181.418 29.2443 180.956 28.7197 180.623 28.0455C180.293 27.3712 180.128 26.5833 180.128 25.6818C180.128 24.7727 180.293 23.9792 180.623 23.3011C180.956 22.6231 181.418 22.0966 182.009 21.7216C182.604 21.3466 183.295 21.1591 184.083 21.1591C184.871 21.1591 185.56 21.3466 186.151 21.7216C186.746 22.0966 187.208 22.6231 187.537 23.3011C187.871 23.9792 188.037 24.7727 188.037 25.6818C188.037 26.5833 187.871 27.3712 187.537 28.0455C187.208 28.7197 186.746 29.2443 186.151 29.6193C185.56 29.9943 184.871 30.1818 184.083 30.1818ZM184.083 28.9773C184.681 28.9773 185.174 28.8239 185.56 28.517C185.946 28.2102 186.232 27.8068 186.418 27.3068C186.604 26.8068 186.696 26.2652 186.696 25.6818C186.696 25.0985 186.604 24.5549 186.418 24.0511C186.232 23.5473 185.946 23.1402 185.56 22.8295C185.174 22.5189 184.681 22.3636 184.083 22.3636C183.484 22.3636 182.992 22.5189 182.606 22.8295C182.219 23.1402 181.933 23.5473 181.748 24.0511C181.562 24.5549 181.469 25.0985 181.469 25.6818C181.469 26.2652 181.562 26.8068 181.748 27.3068C181.933 27.8068 182.219 28.2102 182.606 28.517C182.992 28.8239 183.484 28.9773 184.083 28.9773ZM196.074 23.2273L194.87 23.5682C194.794 23.3674 194.682 23.1723 194.534 22.983C194.39 22.7898 194.193 22.6307 193.943 22.5057C193.693 22.3807 193.373 22.3182 192.983 22.3182C192.449 22.3182 192.004 22.4413 191.648 22.6875C191.296 22.9299 191.12 23.2386 191.12 23.6136C191.12 23.947 191.241 24.2102 191.483 24.4034C191.726 24.5966 192.104 24.7576 192.62 24.8864L193.915 25.2045C194.695 25.3939 195.277 25.6837 195.659 26.0739C196.042 26.4602 196.233 26.9583 196.233 27.5682C196.233 28.0682 196.089 28.5152 195.801 28.9091C195.517 29.303 195.12 29.6136 194.608 29.8409C194.097 30.0682 193.502 30.1818 192.824 30.1818C191.934 30.1818 191.197 29.9886 190.614 29.6023C190.031 29.2159 189.661 28.6515 189.506 27.9091L190.779 27.5909C190.9 28.0606 191.129 28.4129 191.466 28.6477C191.807 28.8826 192.252 29 192.801 29C193.426 29 193.923 28.8674 194.29 28.6023C194.661 28.3333 194.847 28.0114 194.847 27.6364C194.847 27.3333 194.741 27.0795 194.529 26.875C194.317 26.6667 193.991 26.5114 193.551 26.4091L192.097 26.0682C191.298 25.8788 190.71 25.5852 190.335 25.1875C189.964 24.786 189.779 24.2841 189.779 23.6818C189.779 23.1894 189.917 22.7538 190.193 22.375C190.474 21.9962 190.854 21.6989 191.335 21.483C191.82 21.267 192.37 21.1591 192.983 21.1591C193.847 21.1591 194.525 21.3485 195.017 21.7273C195.513 22.1061 195.866 22.6061 196.074 23.2273ZM201.855 21.2727V22.4091H197.332V21.2727H201.855ZM198.651 19.1818H199.991V27.5C199.991 27.8788 200.046 28.1629 200.156 28.3523C200.27 28.5379 200.414 28.6629 200.588 28.7273C200.766 28.7879 200.954 28.8182 201.151 28.8182C201.298 28.8182 201.419 28.8106 201.514 28.7955C201.609 28.7765 201.685 28.7614 201.741 28.75L202.014 29.9545C201.923 29.9886 201.796 30.0227 201.634 30.0568C201.471 30.0947 201.264 30.1136 201.014 30.1136C200.635 30.1136 200.264 30.0322 199.901 29.8693C199.541 29.7064 199.241 29.4583 199.003 29.125C198.768 28.7917 198.651 28.3712 198.651 27.8636V19.1818Z" fill="#0F172A"/>
</svg>
